<svg xmlns="http://www.w3.org/2000/svg" width="208.16" height="173.176" viewBox="0 0 208.16 173.176"><g transform="translate(-23.12 -83.55)"><path d="M335.333,290.944v7.39a.016.016,0,0,1-.024,0l-11.5-6.643v-7.4l7.843,4.538Z" transform="translate(-218.665 -145.859)" fill="none" stroke="#647081" stroke-miterlimit="10" stroke-width="1"/><path d="M377.766,284.29v7.425l-11.491,6.635a.024.024,0,0,1-.035-.022v-7.384Z" transform="translate(-249.571 -145.859)" fill="#c1c8d0" stroke="#647081" stroke-linecap="round" stroke-miterlimit="10" stroke-width="1"/><path d="M346.859,244.784v5.882l-11.526,6.654-3.68-2.124-7.843-4.53v-5.882l11.523-6.654Z" transform="translate(-218.665 -112.235)" fill="none" stroke="#727374" stroke-miterlimit="10" stroke-width="1"/><path d="M289.408,270.622v22.253l-17.4,10.048a.024.024,0,0,1-.038-.022V280.508l15.445-8.919,1.833-1.059a.106.106,0,0,1,.16.092Z" transform="translate(-180.903 -135.825)" fill="#c1c8d0" stroke="#727374" stroke-linecap="round" stroke-miterlimit="10" stroke-width="1"/><path d="M242.645,243.193a.057.057,0,0,1,0,.1l-1.9,1.1L225.3,253.312l-4.72-2.716L209.86,244.4l-1.95-1.124a.03.03,0,0,1,0-.052L225.3,233.18Z" transform="translate(-134.23 -108.629)" fill="#fff" stroke="#727374" stroke-miterlimit="10" stroke-width="1"/><path d="M225.221,280.366v22.37a.038.038,0,0,1-.06.033L207.78,292.733V270.32h.019l1.974,1.138L220.5,277.65Z" transform="translate(-134.146 -135.683)" fill="#fff" stroke="#727374" stroke-miterlimit="10" stroke-width="1"/><path d="M134.51,287.69V322.8a.06.06,0,0,1-.092.052L117.55,313.11V277.959a.035.035,0,0,1,.052-.03l10.209,5.893,3.275,1.9Z" transform="translate(-68.421 -141.223)" fill="#fff" stroke="#727374" stroke-miterlimit="10" stroke-width="1"/><path d="M196.987,278.062v35.053a.071.071,0,0,1-.035.06l-16.819,9.712a.068.068,0,0,1-.1-.06V287.766a.071.071,0,0,1,.035-.06l3.389-1.958,13.427-7.754a.071.071,0,0,1,.106.068Z" transform="translate(-113.932 -141.266)" fill="#c1c8d0" stroke="#727374" stroke-linecap="round" stroke-miterlimit="10" stroke-width="1"/><path d="M151.476,251.5a.052.052,0,0,1,0,.09l-13.454,7.77-3.433,1.977-3.425-1.977-3.275-1.9-10.217-5.893a.022.022,0,0,1,0-.041L134.6,241.75Z" transform="translate(-68.499 -114.872)" fill="#fff" stroke="#727374" stroke-miterlimit="10" stroke-width="1"/><path d="M57.777,206.815l-.073,19.8-.158,42.024-16.838,9.8L23.62,268.48V206.774l16.64-9.606a.855.855,0,0,1,.861,0Z" transform="translate(0 -82.313)" fill="#fff" stroke="#727374" stroke-miterlimit="10" stroke-width="1"/><path d="M23.924,233.434,40.7,243.18v61.54a.1.1,0,0,1-.155.09L23.62,294.96V233.607a.2.2,0,0,1,.3-.174Z" transform="translate(0 -108.793)" fill="#fff" stroke="#727374" stroke-linecap="round" stroke-miterlimit="10" stroke-width="1"/><path d="M103.58,233.265l-.231,61.681L86.81,304.565a.206.206,0,0,1-.31-.177V243.012l16.974-9.815a.079.079,0,0,1,.106.068Z" transform="translate(-45.803 -108.638)" fill="#c1c8d0" stroke="#727374" stroke-linecap="round" stroke-miterlimit="10" stroke-width="1"/><circle cx="9.494" cy="9.494" r="9.494" transform="translate(80.481 84.05)" fill="#50658a" stroke="#000" stroke-miterlimit="10" stroke-width="1"/><path d="M299.519,439.234v.1a1.037,1.037,0,0,1-.519.869l-2.222,1.3-2.227,1.306-52.925,31.039a7.737,7.737,0,0,1-7.819,0L157.04,428.941l-2.173-1.274-2.757-1.605a.657.657,0,0,1-.331-.543v-.079a.657.657,0,0,1,.329-.543l56.315-33.326a8.207,8.207,0,0,1,8.237-.071l82.327,46.88a1.043,1.043,0,0,1,.532.853Z" transform="translate(-93.354 -223.172)" fill="#fff" stroke="#727374" stroke-miterlimit="10" stroke-width="1"/><path d="M299.519,533.47v4.4a1.048,1.048,0,0,1-.519.858l-57.374,33.649a7.732,7.732,0,0,1-7.819,0l-81.7-47.79a.655.655,0,0,1-.331-.543V519.66a.657.657,0,0,0,.331.543l2.746,1.605,2.173,1.274,76.778,44.911a7.737,7.737,0,0,0,7.819,0l52.925-31.044,2.227-1.306,2.221-1.3A1.037,1.037,0,0,0,299.519,533.47Z" transform="translate(-93.354 -317.307)" fill="#c1c8d0" stroke="#727374" stroke-miterlimit="10" stroke-width="1"/><path d="M270.139,540.744l23.445-13.614a.931.931,0,0,1,.926,0l24.171,13.788a.2.2,0,0,1,0,.348l-23.755,13.851a1.3,1.3,0,0,1-1.309,0l-23.481-13.69a.394.394,0,0,1,0-.682Z" transform="translate(-179.425 -322.658)" fill="none" stroke="#737475" stroke-miterlimit="10" stroke-width="1"/><path d="M485.539,171.547l-13.891,64.231-.272,1.29a3.023,3.023,0,0,1-1.974,2.224l-.065.022a3,3,0,0,1-2.444-.272L387.629,193.5a7.433,7.433,0,0,1-3.552-8.052l14.214-64.163a3.292,3.292,0,0,1,2.838-2.564,3.227,3.227,0,0,1,1.192.076,3.35,3.35,0,0,1,.831.339l2.336,1.339,76.958,44.113A6.445,6.445,0,0,1,485.539,171.547Z" transform="translate(-262.435 -25.24)" fill="#fff" stroke="#727374" stroke-miterlimit="10" stroke-width="1"/><path d="M535.1,167.549,520.916,233.07a3.009,3.009,0,0,1-2.01,2.235h0l-3.308,1.086a3.023,3.023,0,0,0,1.974-2.224l.272-1.29,13.9-64.231a6.445,6.445,0,0,0-3.093-6.955L451.7,117.567l-2.336-1.339a3.349,3.349,0,0,0-.831-.339,3.226,3.226,0,0,0-1.192-.076l2.192-.728a3.278,3.278,0,0,1,3.175.057l79.3,45.452a6.445,6.445,0,0,1,3.088,6.955Z" transform="translate(-308.646 -22.328)" fill="#c1c8d0" stroke="#727374" stroke-miterlimit="10" stroke-width="1"/><path d="M480.5,283.24l-.2.926-1.331,6.187h0l-1.773,8.232a2.173,2.173,0,0,1-3.18,1.42l-76.754-43.828a4.793,4.793,0,0,1-2.306-5.2l7.363-33.29-.038.027,1.771-7.876s11.314-7.683,20.971,7.373c0,0,4.831,7.1,5.681,20.314,0,0-.19,16.279,7.392,15.695,0,0,2.846.155,7.46-3.164s12.574-8.807,20.241-.358c0,0,5.081,5.994,4.31,16.173S477.871,281.988,480.5,283.24Z" transform="translate(-270.408 -90.202)" fill="#b2dac6"/><path d="M478.968,309.73l-1.773,8.232a2.173,2.173,0,0,1-3.18,1.42l-76.751-43.825a4.793,4.793,0,0,1-2.306-5.2l7.363-33.29c.684-.5,10.442-7.333,17.886,3.5A38.011,38.011,0,0,1,426,260.49c-.185,11.132,2.987,18.326,7.892,19.728s12.982-5.649,12.982-5.649,5.432-5.4,13.155-1.192c0,0,5.089,2.808,5.614,11.754s.353,12.981,4.736,17.892A27.7,27.7,0,0,0,478.968,309.73Z" transform="translate(-270.408 -109.583)" fill="#0e2b5c"/><path d="M308.465,447.906l-4.674,2.575-11.311-6.553,4.6-2.607Z" transform="translate(-195.843 -260.243)" fill="#e8e8e8"/><path d="M342.728,473.136l-5.138-2.977,4.685-2.569,4.864,2.814h0" transform="translate(-228.702 -279.378)" fill="#e8e8e8"/><path d="M359.85,489.95l4.527,2.623h0" transform="translate(-244.917 -295.666)" fill="#e8e8e8"/><line x1="4.525" y1="2.621" transform="translate(159.336 220.003)" fill="none"/><path d="M325.806,434.9l-4.492,2.664-8.7-5.046,4.587-2.6Z" transform="translate(-210.506 -251.939)" fill="#e8e8e8"/><path d="M292.47,450.92h0l11.311,6.553" transform="translate(-195.836 -267.236)" fill="#e8e8e8"/><path d="M309.4,441.32l11.39,6.586h0" transform="translate(-208.168 -260.243)" fill="#e8e8e8"/><path d="M572.546,593.476l0,0-11.99-6.933h0" transform="translate(-391.111 -366.024)" fill="#e8e8e8"/><line x1="8.704" y1="5.046" transform="translate(102.104 180.583)" fill="none"/><line x1="8.609" y1="4.983" transform="translate(106.691 177.981)" fill="none"/><path d="M332.61,428.15h0l7.151,4.139" transform="translate(-225.075 -250.649)" fill="#e8e8e8"/><line x1="4.492" y2="2.664" transform="translate(110.808 182.965)" fill="none"/><path d="M338.807,465.57h0l-4.674,2.575" transform="translate(-226.182 -277.907)" fill="#e8e8e8"/><path d="M352.957,455.785l-4.777-2.767,4.522-2.648,4.573,2.648" transform="translate(-236.416 -266.835)" fill="#e8e8e8"/><line x1="4.777" y1="2.767" transform="translate(111.764 186.183)" fill="none"/><line x1="4.573" y1="2.648" transform="translate(116.286 183.535)" fill="none"/><line x1="4.522" y2="2.648" transform="translate(111.764 183.535)" fill="none"/><line y1="2.77" x2="4.321" transform="translate(116.538 186.183)" fill="none"/><path d="M320.19,478.668l-5.119,3.2-4.88-2.86,5.244-3.085Z" transform="translate(-208.743 -285.446)" fill="#e8e8e8"/><line x1="5.138" y1="2.977" transform="translate(108.888 190.781)" fill="none"/><path d="M359.707,470.4h0l-4.864-2.814" transform="translate(-241.267 -279.378)" fill="#e8e8e8"/><line x1="4.685" y2="2.569" transform="translate(108.888 188.212)" fill="none"/><path d="M360.923,477.95h0l-4.41,2.732" transform="translate(-242.484 -286.925)" fill="#e8e8e8"/><path d="M364.38,492.573h0l-4.527-2.623" transform="translate(-244.917 -295.666)" fill="#e8e8e8"/><path d="M364.377,485.187h0l4.3-2.8-4.666-2.577-4.169,2.754" transform="translate(-244.917 -288.28)" fill="#e8e8e8"/><path d="M343.169,491.714,338.1,495l-6.865-4.022,5.095-3.218Z" transform="translate(-224.069 -294.071)" fill="#e8e8e8"/><path d="M274.5,458.359l-4.546-2.664,5.26-2.985,4.541,2.623h0" transform="translate(-179.432 -268.539)" fill="#e8e8e8"/><path d="M291.948,462.37h0L286.69,465.4" transform="translate(-191.626 -275.576)" fill="#e8e8e8"/><path d="M356.7,422.668l-7.143-4.125v0Z" transform="translate(-237.421 -243.649)" fill="#e8e8e8"/><path d="M344.363,422.668l-4.592,2.621-7.151-4.139,4.6-2.61h0v0Z" transform="translate(-225.082 -243.649)" fill="#e8e8e8"/><path d="M362.487,409.569l-4.622,2.675-4.815-2.786,4.668-2.648Z" transform="translate(-239.964 -235.105)" fill="#e8e8e8"/><path d="M407.7,418.273l-2.143,1.282-4.552-2.629,2.243-1.236Z" transform="translate(-274.899 -241.573)" fill="#e8e8e8"/><line x1="4.584" y1="2.653" transform="translate(123.445 174.997)" fill="none"/><path d="M378.7,418.94l-4.658,2.653,4.658,2.678,4.584-2.678" transform="translate(-255.253 -243.941)" fill="#e8e8e8"/><path d="M371.515,438.3l-4.495,2.678-4.63-2.678,4.557-2.64Z" transform="translate(-246.767 -256.12)" fill="#e8e8e8"/><path d="M378.146,464.927l-4.5,2.667-4.413-2.558,4.413-2.716Z" transform="translate(-251.749 -275.54)" fill="#e8e8e8"/><path d="M392.551,450.372l-4.413,2.729h0l-4.715-2.729,4.5-2.672Z" transform="translate(-262.086 -264.89)" fill="#e8e8e8"/><path d="M403.709,433.5l-4.522,2.729L394.47,433.5l4.717-2.618Z" transform="translate(-270.135 -252.638)" fill="#e8e8e8"/><path d="M428.412,430.171,426.19,431.4l-4.47-2.583,2.175-1.263h0Z" transform="translate(-289.984 -250.212)" fill="#e8e8e8"/><path d="M424.3,445.046l-4.362,2.822-4.554-2.634,4.484-2.754Z" transform="translate(-285.366 -261.088)" fill="#e8e8e8"/><path d="M392.35,520.1l-5.459,3.286L361.2,508.334l5.079-3.294Z" transform="translate(-245.9 -306.658)" fill="#e8e8e8"/><path d="M471.894,566.74l-5.451,3.351-6.434-3.77,5.513-3.262Z" transform="translate(-317.875 -348.921)" fill="#e8e8e8"/><path d="M497.577,581.618l-2.17,1.3-.616.367L492,584.942l-4.389-2.572,5.538-3.311Z" transform="translate(-337.98 -360.575)" fill="#e8e8e8"/><path d="M389.468,494.245l-4.348,2.781-4.5-2.607,4.275-2.819h0Z" transform="translate(-260.046 -296.868)" fill="#e8e8e8"/><path d="M409.731,506.173l-4.4,2.759L400.78,506.3l4.413-2.746h0Z" transform="translate(-274.731 -305.572)" fill="#e8e8e8"/><path d="M430.113,518l-4.337,2.8-4.576-2.651,4.438-2.735Z" transform="translate(-289.605 -314.211)" fill="#e8e8e8"/><path d="M450.248,529.394l-4.3,2.822-4.633-2.683,4.277-2.833Z" transform="translate(-304.254 -322.435)" fill="#e8e8e8"/><path d="M470.769,541.322l-4.4,2.77-4.486-2.6,4.318-2.813h0Z" transform="translate(-319.238 -331.162)" fill="#e8e8e8"/><path d="M491.3,553.357l-4.609,2.656-4.427-2.564,4.424-2.759h0Z" transform="translate(-334.083 -339.91)" fill="#e8e8e8"/><path d="M511.767,565.421l-4.633,2.648-4.573-2.648,4.571-2.681h0Z" transform="translate(-348.87 -348.688)" fill="#e8e8e8"/><line x1="4.525" y1="2.621" transform="translate(159.336 220.003)" fill="none"/><path d="M527.875,580.3l4.69-2.621-4.69-2.6-4.525,2.6" transform="translate(-364.013 -357.676)" fill="#e8e8e8"/><path d="M543.44,589.185l12.207,7.072,4.432-2.784-11.99-6.933h0" transform="translate(-378.648 -366.024)" fill="#e8e8e8"/><line x1="12.208" y1="7.072" transform="translate(164.793 223.161)" fill="none"/><path d="M548.089,586.54h0l-4.647,2.645" transform="translate(-378.648 -366.024)" fill="#e8e8e8"/><path d="M398.906,477.094l-4.617,2.566-4.489-2.569,4.419-2.634.043-.027Z" transform="translate(-266.733 -284.361)" fill="#e8e8e8"/><line x1="4.658" y1="2.697" transform="translate(133.023 193.222)" fill="none"/><line x1="4.658" y1="2.697" transform="translate(133.023 193.222)" fill="none"/><path d="M413.936,486.05l-4.666,2.577,4.666,2.7,4.66-2.588" transform="translate(-280.915 -292.825)" fill="#e8e8e8"/><path d="M439.12,500.791l-4.6,2.626-4.78-2.77,4.78-2.518Z" transform="translate(-295.826 -301.624)" fill="#e8e8e8"/><path d="M460.029,512.478l-4.625,2.615-4.514-2.615L455.4,509.8Z" transform="translate(-311.232 -310.125)" fill="#e8e8e8"/><path d="M480.824,524.572l-4.6,2.637-4.549-2.637,4.549-2.661Z" transform="translate(-326.376 -318.946)" fill="#e8e8e8"/><path d="M501.474,536.393,496.819,539l-4.169-2.42,4.465-2.713Z" transform="translate(-341.651 -327.658)" fill="#e8e8e8"/><path d="M521.25,547.943l-4.476,2.716-4.685-2.716,4.527-2.683Z" transform="translate(-355.812 -335.955)" fill="#e8e8e8"/><path d="M537.127,557.08l-4.5,2.7,4.5,2.607,4.671-2.607Z" transform="translate(-370.773 -344.565)" fill="#e8e8e8"/><path d="M562.1,571.754l-4.7,2.594-4.636-2.686,4.636-2.632Z" transform="translate(-385.436 -353.269)" fill="#e8e8e8"/><path d="M573.52,583.721l9.2,5.334,4.413-2.77L578.18,581.1" transform="translate(-400.558 -362.061)" fill="#e8e8e8"/><line x1="9.201" y1="5.334" transform="translate(172.962 221.659)" fill="none"/><path d="M599.637,586.284h0L590.68,581.1" transform="translate(-413.058 -362.061)" fill="#e8e8e8"/><line y1="2.621" x2="4.658" transform="translate(172.962 219.039)" fill="none"/><path d="M618.339,580.871l-4.4,2.765-4.766-2.757,4.514-2.7Z" transform="translate(-426.527 -359.934)" fill="#e8e8e8"/><path d="M597.464,568.957,593,571.687l-4.614-2.667L593,566.38Z" transform="translate(-411.39 -351.339)" fill="#e8e8e8"/><path d="M577.044,557.3l-4.647,2.618L567.87,557.3l4.7-2.585Z" transform="translate(-396.443 -342.838)" fill="#e8e8e8"/><path d="M557.112,545.77l-4.668,2.6-4.544-2.629,4.7-2.585Z" transform="translate(-381.896 -334.425)" fill="#e8e8e8"/><path d="M536.713,534.019l-4.62,2.629-4.543-2.629,4.72-2.569h0Z" transform="translate(-367.073 -325.895)" fill="#e8e8e8"/><path d="M516.246,522.144l-4.834,2.5-4.362-2.523,4.69-2.583Z" transform="translate(-352.14 -317.22)" fill="#e8e8e8"/><path d="M495.578,509.981l-4.606,2.632-4.552-2.632,4.552-2.661Z" transform="translate(-337.113 -308.318)" fill="#e8e8e8"/><path d="M475.347,498.164l-4.69,2.58-4.337-2.509,4.47-2.7Z" transform="translate(-322.472 -299.73)" fill="#e8e8e8"/><path d="M454.486,486.619l-4.563,2.651-4.353-2.518,4.8-2.512Z" transform="translate(-307.357 -291.507)" fill="#e8e8e8"/><path d="M434.477,474.378l-4.712,2.561-4.505-2.607,4.359-2.762Z" transform="translate(-292.563 -282.277)" fill="#e8e8e8"/><path d="M413.451,462.514l-4.481,2.691-4.5-2.6,4.544-2.653Z" transform="translate(-277.419 -273.813)" fill="#e8e8e8"/><path d="M445.233,457.176l-4.288,2.868-4.465-2.585,4.492-2.748Z" transform="translate(-300.736 -269.996)" fill="#e8e8e8"/><line x1="4.706" y1="2.721" transform="translate(140.994 190.501)" fill="none"/><path d="M455.81,468.364l4.31-2.854,4.929,2.854-4.535,2.724" transform="translate(-314.816 -277.863)" fill="#e8e8e8"/><path d="M485.259,480.375l-4.465,2.762-4.774-2.762,4.516-2.735Z" transform="translate(-329.537 -286.699)" fill="#e8e8e8"/><path d="M506.129,492.4l-4.538,2.719-4.7-2.719,4.481-2.754Z" transform="translate(-344.74 -295.447)" fill="#e8e8e8"/><path d="M526.509,504.121,521.9,506.8l-4.625-2.675,4.432-2.781Z" transform="translate(-359.585 -303.963)" fill="#e8e8e8"/><path d="M546.659,515.866l-4.59,2.689-4.489-2.6,4.489-2.748Z" transform="translate(-374.379 -312.609)" fill="#e8e8e8"/><path d="M567.029,527.678l-4.435,2.781-4.8-2.781,4.506-2.738Z" transform="translate(-389.1 -321.153)" fill="#e8e8e8"/><path d="M588.206,539.81l-4.381,2.811-4.505-2.607,4.427-2.784Z" transform="translate(-404.783 -330.106)" fill="#e8e8e8"/><path d="M608.175,551.112l-4.476,2.757-4.459-2.58,4.264-2.879Z" transform="translate(-419.293 -338.249)" fill="#e8e8e8"/><path d="M631.034,564.609,626.6,567.39l-7.262-4.2,4.435-2.778Z" transform="translate(-433.935 -346.99)" fill="#e8e8e8"/><path d="M642.214,554.023l-1.95,1.225-3.734-2.159,2.045-1.179h0Z" transform="translate(-446.456 -340.799)" fill="#e8e8e8"/><path d="M581.131,518.556l-2.018,1.236-4.734-2.735,2.021-1.247Z" transform="translate(-401.185 -314.503)" fill="#e8e8e8"/><line x1="4.432" y1="2.55" transform="translate(157.685 223.207)" fill="none"/><path d="M509.826,596.46l-2.776,1.678,4.427,2.564,2.781-1.695" transform="translate(-352.14 -373.25)" fill="#e8e8e8"/><path d="M533.458,610.143l-2.86,1.738-4.8-2.814,2.835-1.7Z" transform="translate(-365.798 -381.197)" fill="#e8e8e8"/><path d="M554.515,622.376l-2.865,1.8-5.1-2.99,2.914-1.714Z" transform="translate(-380.913 -390.011)" fill="#e8e8e8"/><path d="M545.119,603.782l-2.243,1.271-4.826-2.8,2.116-1.336h0Z" transform="translate(-374.721 -376.499)" fill="#e8e8e8"/><path d="M300.482,467.313l-5.269,3.063-4.413-2.585,5.266-3.031Z" transform="translate(-194.619 -277.317)" fill="#e8e8e8"/><path d="M373.72,402.23l2.159-1.2,4.573,2.458-2.374,1.26Z" transform="translate(-255.02 -230.895)" fill="#e8e8e8"/><path d="M441.85,440.612l2-1.152L448.471,442l-2.126,1.176Z" transform="translate(-304.647 -258.888)" fill="#e8e8e8"/><path d="M462.41,452.508l1.8-1.2,4.283,2.36-1.833,1.279Z" transform="translate(-319.624 -267.52)" fill="#e8e8e8"/><line x2="8.862" y2="5.065" transform="translate(144.497 110.41)" fill="none" stroke="#e8e8e8" stroke-linecap="round" stroke-miterlimit="10" stroke-width="1"/><line x2="8.707" y2="4.913" transform="translate(166.004 140.172)" fill="none" stroke="#e8e8e8" stroke-linecap="round" stroke-miterlimit="10" stroke-width="1"/><line x2="8.707" y2="5.108" transform="translate(190.544 150.897)" fill="none" stroke="#e8e8e8" stroke-linecap="round" stroke-miterlimit="10" stroke-width="1"/><path d="M490.415,183.745,480.5,229.762l-.2.926-1.333,6.184-1.773,8.232a2.173,2.173,0,0,1-3.18,1.42L397.263,202.7a4.793,4.793,0,0,1-2.306-5.2l7.363-33.29,1.733-7.846,4.541-20.537a1.741,1.741,0,0,1,2.558-1.138l76.778,43.5a5.138,5.138,0,0,1,2.485,5.548Z" transform="translate(-270.408 -36.724)" fill="none" stroke="#727374" stroke-miterlimit="10" stroke-width="1"/><path d="M711.512,407.976c.932-.543,2.8.853,4.166,3.139s1.735,4.592.815,5.16-2.8-.853-4.166-3.137S710.586,408.535,711.512,407.976Z" transform="translate(-500.703 -235.869)" fill="#dbdfea" stroke="#231f20" stroke-miterlimit="10" stroke-width="1"/><path d="M727.019,376.424a.668.668,0,0,1,.193-.168c.932-.543,2.8.853,4.171,3.137s1.733,4.592.815,5.16h0l.019.033-14.337,8.582c.926-.557.568-2.862-.815-5.16s-3.235-3.691-4.166-3.139Z" transform="translate(-502.086 -212.763)" fill="#dbdfea" stroke="#231f20" stroke-miterlimit="10" stroke-width="1"/><circle cx="7.71" cy="7.71" r="7.71" transform="translate(179.947 197.999)" fill="#008040" stroke="#000" stroke-miterlimit="10" stroke-width="1"/></g></svg>