<svg xmlns="http://www.w3.org/2000/svg" width="185.244" height="168.53" viewBox="0 0 185.244 168.53"><g transform="translate(-27.079 -68.76)"><path d="M365.75,500.82v.2A.775.775,0,0,1,365.75,500.82Z" transform="translate(-254.639 -325.019)" fill="none" stroke="#414042" stroke-miterlimit="10" stroke-width="1"/><path d="M412.686,456.53v11.082a.358.358,0,0,1,0,.052.987.987,0,0,1-.494.768L389.7,481.269a2.715,2.715,0,0,1-2.74-.039l-20.552-12.536a1.276,1.276,0,0,1-.622-1.027V456.557a1.284,1.284,0,0,0,.622,1.012l7.387,4.508,9.174,5.6,3.987,2.429a2.691,2.691,0,0,0,2.74.039l4.325-2.469,9.808-5.6,8.354-4.765a.987.987,0,0,0,.494-.77Z" transform="translate(-254.674 -291.663)" fill="#edeff0" stroke="#727374" stroke-miterlimit="10" stroke-width="1"/><path d="M555.75,501.42v.052h0A.35.35,0,0,0,555.75,501.42Z" transform="translate(-397.737 -325.471)" fill="none" stroke="#414042" stroke-miterlimit="10" stroke-width="1"/><path d="M524.506,272.3s-6.268,6.29-12.023-.494a1.417,1.417,0,0,0-.262-1.94l-1.637-.96s-1.908-8.552,6.631-9.9C517.216,259,525.757,263.091,524.506,272.3Z" transform="translate(-363.585 -142.898)" fill="#edeff0" stroke="#727374" stroke-miterlimit="10" stroke-width="1"/><path d="M657.857,286.367l-18.874-10.9L620,286.567l-.116,21.994,18.871,10.895,18.99-11.1Z" transform="translate(-446.035 -155.302)" fill="#fff" stroke="#727374" stroke-miterlimit="10" stroke-width="1"/><path d="M620.268,320.985l18.6,10.739-.114,21.834a.094.094,0,0,1-.138.079L619.88,342.819l.114-21.681a.183.183,0,0,1,.274-.153Z" transform="translate(-446.035 -189.562)" fill="#edeff0" stroke="#727374" stroke-miterlimit="10" stroke-width="1"/><path d="M696.481,330.881l18.876-11.03a.076.076,0,0,1,.114.064l-.116,21.861-18.762,10.974a.143.143,0,0,1-.212-.123Z" transform="translate(-503.649 -188.719)" fill="#c1c8d0" stroke="#727374" stroke-miterlimit="10" stroke-width="1"/><path d="M412.656,413.991a.988.988,0,0,1-.494.77l-8.357,4.777-9.808,5.6-4.325,2.469a2.691,2.691,0,0,1-2.74-.039l-3.987-2.429-9.174-5.6-7.391-4.518a1.284,1.284,0,0,1-.622-1.012v-.017a1.291,1.291,0,0,1,.634-1.217l21.066-12.492a1.684,1.684,0,0,1,1.679-.022l23.016,12.778A.988.988,0,0,1,412.656,413.991Z" transform="translate(-254.646 -249.124)" fill="none" stroke="#727374" stroke-miterlimit="10" stroke-width="1"/><path d="M415.543,426.99c-16.2,0-14.524-10.312-14.524-10.312l2.782-11c1.728,2.419,4.663,6.043,11.741,6.043s11.741-6.043,11.741-6.043L430,417.328S431.748,426.99,415.543,426.99Z" transform="translate(-281.169 -253.366)" fill="#c1c8d0" stroke="#727374" stroke-miterlimit="10" stroke-width="1"/><path d="M435.93,364.635s-4.663,6.043-11.749,6.043-10.013-3.624-11.741-6.043c0,0,.247-13.465,11-13.465S435.757,363.427,435.93,364.635Z" transform="translate(-289.807 -212.314)" fill="#edeff0" stroke="#727374" stroke-miterlimit="10" stroke-width="1"/><path d="M490.064,311.384s-1.076,10.974-16.627,21.207c0,0-8.307,3.283-8.766-8.423,0,0,9.944-6.868,13.371-13.267C483.8,317.674,490.064,311.384,490.064,311.384Z" transform="translate(-329.143 -181.985)" fill="#fff" stroke="#727374" stroke-miterlimit="10" stroke-width="1"/><ellipse cx="8.954" cy="5.15" rx="8.954" ry="5.15" transform="translate(183.964 126.49)" fill="none" stroke="#727374" stroke-miterlimit="10" stroke-width="1"/><ellipse cx="47.797" cy="27.801" rx="47.797" ry="27.801" transform="translate(90.668 113.547)" fill="none" stroke="#727374" stroke-miterlimit="10" stroke-width="1" stroke-dasharray="16"/><path d="M9.11,0A9.11,9.11,0,1,1,0,9.11,9.11,9.11,0,0,1,9.11,0Z" transform="translate(179.399 172.204)" fill="#008040" stroke="#0e2b5c" stroke-width="1"/><circle cx="5.905" cy="5.905" r="5.905" transform="translate(99.456 69.26)" fill="#50658a" stroke="#414042" stroke-miterlimit="10" stroke-width="1"/><path d="M680.749,293.616l3.493-1.943V282.44l-4.952.109,1.328,11a.089.089,0,0,0,.131.067Z" transform="translate(-490.778 -160.551)" fill="#edeff0" stroke="#727374" stroke-miterlimit="10" stroke-width="1"/><path d="M678.41,273.507l5.431-.156V270.48s-5.947.262-7.34.309-1.481,3.5-1.481,3.5v8.966l2.316,1.368a.057.057,0,0,0,.086-.049v-9.421S677.36,273.507,678.41,273.507Z" transform="translate(-487.563 -151.544)" fill="#fff" stroke="#727374" stroke-miterlimit="10" stroke-width="1"/><path d="M677.1,262.56s2.923,2.659,6.019-3.36v-8.349s-2.639-7.184-7.461-7.851c0,0-2.54.528-7.219,3.444l5.72,4.125s1.728,3.434,1.76,5.071A65.487,65.487,0,0,0,677.1,262.56Z" transform="translate(-482.607 -130.848)" fill="#fff" stroke="#727374" stroke-miterlimit="10" stroke-width="1"/><path d="M660.87,266.739v-7.954s.859-4.355,6.147-.778c0,0,4.382,2.76,4.382,7.72V272.8l-2.469-1.415v-6.258s-.086-3.636-3.091-4.794c0,0-2.5-1.064-2.5,2.5s.032,5.616.032,5.616Z" transform="translate(-476.906 -141.088)" fill="#fff" stroke="#727374" stroke-miterlimit="10" stroke-width="1"/><path d="M671,208.286s9.285-3.13,7.878,11.188a2.924,2.924,0,0,1-4.036,0s.3-3.051-.81-4.049S671,208.286,671,208.286Z" transform="translate(-484.535 -104.486)" fill="#fff" stroke="#727374" stroke-miterlimit="10" stroke-width="1"/><path d="M614.837,212.463l10.709-3.293s6.518,4.649,3.037,7.14l-10.917,4.668s-6.787-3.417-7.011-4.256S614.837,212.463,614.837,212.463Z" transform="translate(-439.081 -105.37)" fill="#edeff0" stroke="#727374" stroke-miterlimit="10" stroke-width="1"/><path d="M427.692,190.9l44.2,6.913s4.367-3.548-2.829-8.5l-45.65-10.865s-5.678,2.422-6.29,8.011S427.692,190.9,427.692,190.9Z" transform="translate(-293.318 -82.234)" fill="#fff" stroke="#727374" stroke-miterlimit="10" stroke-width="1"/><path d="M425.2,188.514l-2.01-1.141c-7.937,1.35-6.769,9.46-6.769,9.46-2.222-1.3-6.485-5.345-4.937-11.028s7.458-7.406,7.458-7.406C427.187,181.306,425.2,188.514,425.2,188.514Z" transform="translate(-288.835 -82.196)" fill="#edeff0" stroke="#727374" stroke-miterlimit="10" stroke-width="1"/><path d="M451.723,235.586,432.306,224.21s-1.168-8.11,6.769-9.46l2.01,1.141,17.269,9.784C449.814,227.025,451.723,235.586,451.723,235.586Z" transform="translate(-304.723 -109.572)" fill="#fff" stroke="#727374" stroke-miterlimit="10" stroke-width="1"/><path d="M52.966,330.453l71.8,40.557a4.691,4.691,0,0,1,2.284,5.058l-11.428,53.794a2.772,2.772,0,0,1-4.093,1.827L40.6,390.927a6.419,6.419,0,0,1-3.061-6.947l11.356-51.71a2.772,2.772,0,0,1,4.073-1.817Z" transform="translate(-7.343 -196.44)" fill="#c1c8d0" stroke="#727373" stroke-miterlimit="10" stroke-width="1"/><path d="M43.228,335.117l71.8,40.557a4.691,4.691,0,0,1,2.284,5.061l-11.428,53.794a2.775,2.775,0,0,1-4.093,1.827L30.86,395.592a6.419,6.419,0,0,1-3.074-6.954l11.371-51.7a2.772,2.772,0,0,1,4.071-1.819Z" transform="translate(0 -199.954)" fill="#fff" stroke="#727374" stroke-miterlimit="10" stroke-width="1"/><path d="M179.79,493.391l9.3-39.831,32.123,18.185L212.4,512.373Z" transform="translate(-114.592 -289.426)" fill="#e2e7ee"/><path d="M197.47,519.1l7.8-34.775,3.728,1.9-7.685,35.11Z" transform="translate(-127.908 -312.6)" fill="#fff"/><path d="M224.04,534.432l7.8-34.772,3.725,1.9-7.683,35.113Z" transform="translate(-147.918 -324.145)" fill="#fff"/><path d="M249.87,549.175l7.8-34.775,3.725,1.9-7.685,35.111Z" transform="translate(-167.371 -335.246)" fill="#fff"/><path d="M277.36,565.015l7.8-34.775,3.725,1.9L281.2,567.251Z" transform="translate(-188.075 -347.176)" fill="#fff"/><path d="M200.1,577.71l3.787,2.19-2.575,11.769-3.844-2.237Z" transform="translate(-127.908 -382.927)" fill="#008040"/><path d="M229.8,536.43l3.718,2.163-5.639,25.771-3.844-2.239Z" transform="translate(-147.918 -351.838)" fill="#0e2b5c"/><path d="M251.452,626.68l3.829,2.121-1.57,7.172-3.841-2.237Z" transform="translate(-167.371 -419.807)" fill="#008040"/><path d="M281.068,604.13l3.822,1.926L281.2,622.9l-3.844-2.237Z" transform="translate(-188.075 -402.824)" fill="#0e2b5c"/><ellipse cx="69.757" cy="40.848" rx="69.757" ry="40.848" transform="translate(68.933 73.674)" fill="none" stroke="#727374" stroke-miterlimit="10" stroke-width="1" stroke-dasharray="16"/><path d="M148.006,261.327c.908-.541,2.321.146,3.153,1.536s.775,2.962-.133,3.506-2.318-.146-3.15-1.536S147.1,261.872,148.006,261.327Z" transform="translate(-90.114 -144.511)" fill="#dbdfea" stroke="#231f20" stroke-miterlimit="10" stroke-width="1"/><path d="M164.018,227.354a1.071,1.071,0,0,1,.2-.151c.909-.543,2.321.146,3.155,1.533s.775,2.962-.131,3.506h0l.012.02-14.013,8.394c.909-.546.97-2.113.133-3.506s-2.244-2.076-3.153-1.536Z" transform="translate(-92.322 -118.811)" fill="#dbdfea" stroke="#231f20" stroke-miterlimit="10" stroke-width="1"/></g></svg>